# xmcd
#
# Track frame offsets: 
#        150
#        4651
#        5029
#        19714
#        20014
#        39457
#        55661
#        56580
#        70632
#        92184
#        92749
#        107402
#        117400
#        118315
#        136063
#        154212
#        155124
#        174837
#        183400
#        186116
#        197972
#        215056
#        216490
#        240757
#        268624
#        270015
#
# Disc length: 3792 seconds
#
# Revision: 0
# Processed by: cddbd v1.5.2PL0 Copyright (c) Steve Scherf et al.
# Submitted via: ExactAudioCopy v1.0b3
#
DISCID=660ece1a
DTITLE=Różni wykonawcy - Okolice bluesa 100% live
DYEAR=2013
DGENRE=Blues
TTITLE0=01 - Intro
TTITLE1=02.Wielebny Blues - Zapowiedź
TTITLE2=03.Wielebny Blues - Anioł
TTITLE3=04.Ścigani - Zapowiedź
TTITLE4=05.Ścigani - Blues No No
TTITLE5=06.Ścigani - Niby razem
TTITLE6=07.Hoodoo Band - Zapowiedź
TTITLE7=08.Hoodoo Band - Voodoo key
TTITLE8=09.Hoodoo Band - Fire
TTITLE9=10.Moo Moo Milk - Zapowiedź
TTITLE10=11.Moo Moo Milk - Ramblin On My Mind
TTITLE11=12.Moo Moo Milk - Baby Im  Easy
TTITLE12=13.Outsider - Zapowiedź
TTITLE13=14.Outsider - Crazy Mixed Up World
TTITLE14=15.Outsider - I m Ready Nobody Knows
TTITLE15=16.Los Agentos - Zapowiedź
TTITLE16=17.Los Agentos - Przykro mi
TTITLE17=18..Los Agentos - Pełna kontrola
TTITLE18=19.Sebastian Riedel - Zapowiedź
TTITLE19=20.Sebastian Riedel - Zostań ze mną
TTITLE20=21.Alek Mrożek and Gienek Loska - Tak to już północ
TTITLE21=22.Ryszard Wolbach and Krzysztof Misiak - Zapowiedź
TTITLE22=23.Ryszard Wolbach and Krzysztof Misiak - Kropla
TTITLE23=24.Ryszard Wolbach and Krzysztof Misiak - Kiedy góral umiera
TTITLE24=25.Kajetan Drozd Acoustic Trio - Zapowiedź
TTITLE25=26.Kajetan Drozd Acoustic Trio - Folsom Prison Blues
EXTD=
EXTT0=
EXTT1=
EXTT2=
EXTT3=
EXTT4=
EXTT5=
EXTT6=
EXTT7=
EXTT8=
EXTT9=
EXTT10=
EXTT11=
EXTT12=
EXTT13=
EXTT14=
EXTT15=
EXTT16=
EXTT17=
EXTT18=
EXTT19=
EXTT20=
EXTT21=
EXTT22=
EXTT23=
EXTT24=
EXTT25=
PLAYORDER=
